<svg width="30" height="27" viewBox="0 0 30 27" fill="none" xmlns="http://www.w3.org/2000/svg">
<path fill-rule="evenodd" clip-rule="evenodd" d="M29.1771 25.7898H22.0945L21.0937 24.481C19.708 25.0199 18.4763 25.4049 17.3985 25.7128C16.3207 25.9437 15.1659 26.0977 13.8572 26.0977C9.54607 26.0977 6.15875 25.0199 3.77224 22.9414C1.23175 20.7858 0 17.4755 0 13.2413C0 8.93019 1.15477 5.61986 3.38731 3.38731C5.69685 1.15477 9.16114 0 13.8572 0C18.3993 0 21.8636 1.23175 24.2501 3.61827C26.3287 5.69685 27.3295 8.3913 27.3295 11.6246C27.3295 14.0112 27.2525 15.7818 27.0215 16.8596C26.7136 18.5532 25.9437 20.1699 24.866 21.6326L29.1771 25.7898ZM21.0937 13.0104C21.0937 10.7008 20.6318 8.85321 19.631 7.3905C18.3993 5.54288 16.3977 4.61907 13.7802 4.61907C11.3167 4.61907 9.3921 5.31192 8.16035 6.77463C6.9286 8.16035 6.31272 10.2389 6.31272 12.9334C6.31272 15.9358 7.00558 18.1683 8.46828 19.554C9.77702 20.7858 11.7016 21.4017 14.2421 21.4017C16.5516 21.4017 18.2453 20.7088 19.4001 19.3231C20.5548 17.8604 21.0937 15.7818 21.0937 13.0104Z" fill="#BBC4D6"/>
</svg>
