<svg width="28" height="27" viewBox="0 0 28 27" fill="none" xmlns="http://www.w3.org/2000/svg">
<path fill-rule="evenodd" clip-rule="evenodd" d="M27.9913 13.0104C27.9913 17.9375 26.6056 21.4017 23.9111 23.5573C21.6786 25.251 18.4452 26.0978 14.2881 26.0978C9.59204 26.0978 6.12775 25.097 3.8952 23.1724C1.4317 21.0168 0.199951 17.5525 0.199951 12.7795C0.199951 8.85329 1.27773 5.77392 3.51028 3.61835C5.89679 1.23184 9.43808 0.0770721 14.2111 0.0770721C19.446 0.0770721 23.0643 1.23184 25.2199 3.46439C27.0675 5.46598 27.9913 8.62234 27.9913 13.0104ZM21.5246 12.8565C21.5246 10.393 20.9088 8.39139 19.754 6.92868C18.4452 5.31201 16.4437 4.46518 13.9032 4.46518C11.3627 4.46518 9.43808 5.31201 8.12934 7.08265C7.05156 8.54535 6.51267 10.47 6.51267 12.7795C6.51267 15.4739 6.97457 17.4755 7.8214 18.7843C9.05315 20.5549 11.2087 21.4787 14.519 21.4787C17.2905 21.4787 19.2151 20.6319 20.2929 18.8613C21.1397 17.6295 21.5246 15.5509 21.5246 12.8565Z" fill="#BBC4D6"/>
</svg>
