<svg width="28" height="26" viewBox="0 0 28 26" fill="none" xmlns="http://www.w3.org/2000/svg">
<path fill-rule="evenodd" clip-rule="evenodd" d="M27.8913 17.8604C27.8913 20.0929 27.1215 21.9406 25.6588 23.4802C24.1961 25.0199 22.3484 25.7128 20.0389 25.7128H2.33249V21.1707H17.0365C18.0373 21.1707 18.8841 20.9398 19.5 20.4779C20.2699 19.939 20.6548 19.2461 20.6548 18.3223C20.6548 16.1667 19.1151 15.0889 16.1127 15.0889H8.7222C6.56664 15.0889 4.71901 14.3961 3.10234 13.0874C1.48567 11.7786 0.71582 10.085 0.71582 8.00638C0.71582 5.77384 1.48567 3.92621 3.10234 2.54049C4.64203 1.15477 6.7206 0.461914 9.33807 0.461914H26.3516V4.77304H11.2627C10.5698 4.77304 9.87696 5.08098 9.26109 5.61987C8.49125 6.15876 8.18331 6.85162 8.18331 7.62146C8.18331 8.46829 8.49124 9.23813 9.1841 9.77702C9.87696 10.3929 10.6468 10.6239 11.5706 10.6239H19.731C22.2715 10.6239 24.273 11.3167 25.7358 12.6254C27.1985 13.9342 27.8913 15.7048 27.8913 17.8604Z" fill="#BBC4D6"/>
</svg>
