<svg width="49" height="26" viewBox="0 0 49 26" fill="none" xmlns="http://www.w3.org/2000/svg">
<path fill-rule="evenodd" clip-rule="evenodd" d="M24.3185 15.1659H6.92006V25.6358H0.684326V10.1619C0.684326 9.23814 0.838298 8.16035 1.22322 7.00559C1.91608 4.92701 3.22481 3.38732 5.14942 2.30954C7.38197 1.07779 11.0772 0.461914 16.1582 0.461914C27.013 0.461914 37.8678 0.461914 48.7226 0.461914V4.69606H39.3305V25.6358H33.4797V4.69606C27.4749 4.69606 21.7781 4.61907 15.7733 4.61907C13.4637 4.61907 11.8471 4.77304 10.9233 5.00399C9.30658 5.38892 8.2288 6.31273 7.53594 7.62146C6.99705 8.62226 6.76609 9.70004 6.76609 10.9318H24.3185V15.1659Z" fill="#BBC4D6"/>
</svg>
