<svg width="21" height="19" viewBox="0 0 21 19" fill="none" xmlns="http://www.w3.org/2000/svg">
<path fill-rule="evenodd" clip-rule="evenodd" d="M20.0753 9.13214C20.0753 12.5963 19.101 15.032 17.2065 16.5476C15.6368 17.7384 13.3635 18.3338 10.4406 18.3338C7.13886 18.3338 4.70314 17.6301 3.13345 16.2769C1.40137 14.7614 0.535339 12.3256 0.535339 8.96976C0.535339 6.20926 1.29312 4.04417 2.86281 2.52861C4.54075 0.850666 7.03061 0.0387573 10.3865 0.0387573C14.0672 0.0387573 16.6111 0.850666 18.1267 2.42036C19.4258 3.82767 20.0753 6.04688 20.0753 9.13214ZM15.5286 9.02388C15.5286 7.29181 15.0956 5.8845 14.2837 4.85608C13.3635 3.71941 11.9562 3.12401 10.17 3.12401C8.38379 3.12401 7.03061 3.71941 6.11045 4.96434C5.35266 5.99276 4.97377 7.34594 4.97377 8.96976C4.97377 10.8642 5.29854 12.2715 5.89394 13.1917C6.75997 14.4366 8.27554 15.0861 10.603 15.0861C12.5516 15.0861 13.9048 14.4907 14.6626 13.2458C15.258 12.3798 15.5286 10.9183 15.5286 9.02388Z" fill="#F95A59"/>
</svg>
