<svg width="20" height="19" viewBox="0 0 20 19" fill="none" xmlns="http://www.w3.org/2000/svg">
<path fill-rule="evenodd" clip-rule="evenodd" d="M19.6152 12.5421C19.6152 14.1118 19.0739 15.4109 18.0455 16.4934C17.0171 17.576 15.7181 18.0631 14.0942 18.0631H1.64497V14.8696H11.9833C12.6869 14.8696 13.2823 14.7072 13.7154 14.3825C14.2566 14.0036 14.5273 13.5164 14.5273 12.8669C14.5273 11.3513 13.4447 10.5936 11.3338 10.5936H6.13754C4.62197 10.5936 3.32292 10.1064 2.18625 9.18626C1.04957 8.26609 0.508301 7.07529 0.508301 5.61386C0.508301 4.04417 1.04957 2.74511 2.18625 1.77082C3.26879 0.796533 4.73023 0.309387 6.57055 0.309387H18.5327V3.34051H7.92374C7.43659 3.34051 6.94945 3.55702 6.51643 3.93591C5.97516 4.3148 5.75865 4.80195 5.75865 5.34322C5.75865 5.93862 5.97515 6.47989 6.4623 6.85878C6.94945 7.2918 7.49072 7.45418 8.14025 7.45418H13.8777C15.6639 7.45418 17.0712 7.94133 18.0997 8.86149C19.1281 9.78166 19.6152 11.0266 19.6152 12.5421Z" fill="#F95A59"/>
</svg>
