<svg width="35" height="19" viewBox="0 0 35 19" fill="none" xmlns="http://www.w3.org/2000/svg">
<path fill-rule="evenodd" clip-rule="evenodd" d="M16.8828 10.6477H4.64999V18.009H0.265686V7.12942C0.265686 6.47989 0.373943 5.72211 0.644579 4.9102C1.13172 3.44877 2.05189 2.36622 3.40507 1.60844C4.97476 0.742405 7.57287 0.309387 11.1453 0.309387C18.7772 0.309387 26.4092 0.309387 34.0411 0.309387V3.28639H27.4376V18.009H23.3239V3.28639C19.102 3.28639 15.0966 3.23226 10.8746 3.23226C9.25081 3.23226 8.11414 3.34051 7.46461 3.5029C6.32794 3.77353 5.57016 4.42306 5.08301 5.34322C4.70412 6.04688 4.54174 6.80466 4.54174 7.67069H16.8828V10.6477Z" fill="#F95A59"/>
</svg>
